<svg width="46" height="40" viewBox="0 0 46 40" fill="none" xmlns="http://www.w3.org/2000/svg">
<g filter="url(#filter0_d)">
<path d="M23 8C22.2928 8 21.6145 8.28095 21.1144 8.78105C20.6143 9.28115 20.3334 9.95942 20.3334 10.6667C20.3337 11.1344 20.4571 11.5938 20.6912 11.9988C20.9252 12.4038 21.2616 12.7401 21.6667 12.974V17.3333H17.6667V27.0286C17.262 27.2623 16.9258 27.5982 16.6918 28.0027C16.4578 28.4072 16.3342 28.866 16.3334 29.3333C16.3334 30.0406 16.6143 30.7189 17.1144 31.219C17.6145 31.719 18.2928 32 19 32C19.7073 32 20.3856 31.719 20.8857 31.219C21.3858 30.7189 21.6667 30.0406 21.6667 29.3333C21.6663 28.8656 21.5429 28.4062 21.3089 28.0012C21.0749 27.5962 20.7384 27.2599 20.3334 27.026V20H33.6667V27.0286C33.262 27.2623 32.9258 27.5982 32.6918 28.0027C32.4578 28.4072 32.3342 28.866 32.3334 29.3333C32.3334 30.0406 32.6143 30.7189 33.1144 31.219C33.6145 31.719 34.2928 32 35 32C35.7073 32 36.3856 31.719 36.8857 31.219C37.3858 30.7189 37.6667 30.0406 37.6667 29.3333C37.6663 28.8656 37.5429 28.4062 37.3089 28.0012C37.0749 27.5962 36.7384 27.2599 36.3334 27.026V17.3333H24.3334V12.9714C24.7381 12.7377 25.0743 12.4018 25.3083 11.9973C25.5423 11.5928 25.6659 11.134 25.6667 10.6667C25.6667 9.95942 25.3858 9.28115 24.8857 8.78105C24.3856 8.28095 23.7073 8 23 8ZM11 26.6667C10.2928 26.6667 9.61452 26.9476 9.11442 27.4477C8.61433 27.9478 8.33337 28.6261 8.33337 29.3333C8.33337 30.0406 8.61433 30.7189 9.11442 31.219C9.61452 31.719 10.2928 32 11 32C11.7073 32 12.3856 31.719 12.8857 31.219C13.3858 30.7189 13.6667 30.0406 13.6667 29.3333C13.6667 28.6261 13.3858 27.9478 12.8857 27.4477C12.3856 26.9476 11.7073 26.6667 11 26.6667ZM27 26.6667C26.2928 26.6667 25.6145 26.9476 25.1144 27.4477C24.6143 27.9478 24.3334 28.6261 24.3334 29.3333C24.3334 30.0406 24.6143 30.7189 25.1144 31.219C25.6145 31.719 26.2928 32 27 32C27.7073 32 28.3856 31.719 28.8857 31.219C29.3858 30.7189 29.6667 30.0406 29.6667 29.3333C29.6667 28.6261 29.3858 27.9478 28.8857 27.4477C28.3856 26.9476 27.7073 26.6667 27 26.6667Z" fill="#20DEE2"/>
</g>
<defs>
<filter id="filter0_d" x="-1" y="-4" width="48" height="48" filterUnits="userSpaceOnUse" color-interpolation-filters="sRGB">
<feFlood flood-opacity="0" result="BackgroundImageFix"/>
<feColorMatrix in="SourceAlpha" type="matrix" values="0 0 0 0 0 0 0 0 0 0 0 0 0 0 0 0 0 0 127 0"/>
<feOffset/>
<feGaussianBlur stdDeviation="4"/>
<feColorMatrix type="matrix" values="0 0 0 0 0.12549 0 0 0 0 0.870588 0 0 0 0 0.886275 0 0 0 0.32 0"/>
<feBlend mode="normal" in2="BackgroundImageFix" result="effect1_dropShadow"/>
<feBlend mode="normal" in="SourceGraphic" in2="effect1_dropShadow" result="shape"/>
</filter>
</defs>
</svg>
