<svg width="36" height="42" viewBox="0 0 36 42" fill="none" xmlns="http://www.w3.org/2000/svg">
<g filter="url(#filter0_d)">
<path d="M10 8C8.90625 8 8 8.90625 8 10V32C8 33.0938 8.90625 34 10 34H26C27.0938 34 28 33.0938 28 32V14.5938L27.7188 14.2812L21.7188 8.28125L21.4062 8H10ZM10 10H19V15C19 16.0938 19.9062 17 21 17H26V32H10V10ZM21 10.4375L25.5625 15H21V10.4375ZM13 20V22H23V20H13ZM13 23V25H23V23H13ZM13 26V28H18V26H13Z" fill="#20DEE2"/>
</g>
<defs>
<filter id="filter0_d" x="-6" y="-3" width="48" height="48" filterUnits="userSpaceOnUse" color-interpolation-filters="sRGB">
<feFlood flood-opacity="0" result="BackgroundImageFix"/>
<feColorMatrix in="SourceAlpha" type="matrix" values="0 0 0 0 0 0 0 0 0 0 0 0 0 0 0 0 0 0 127 0"/>
<feOffset/>
<feGaussianBlur stdDeviation="4"/>
<feColorMatrix type="matrix" values="0 0 0 0 0.12549 0 0 0 0 0.870588 0 0 0 0 0.886275 0 0 0 0.32 0"/>
<feBlend mode="normal" in2="BackgroundImageFix" result="effect1_dropShadow"/>
<feBlend mode="normal" in="SourceGraphic" in2="effect1_dropShadow" result="shape"/>
</filter>
</defs>
</svg>
