<svg width="24" height="24" viewBox="0 0 24 24" fill="none" xmlns="http://www.w3.org/2000/svg">
<g clip-path="url(#clip0)">
<path d="M12 0.75C7.03868 0.75 3 4.67819 3 9.50617C3 15.0924 8.4767 20.5109 11.4168 23.4227L12 24L12.5812 23.4227C15.5234 20.5129 21 15.0964 21 9.50617C21 4.67819 16.9613 0.75 12 0.75Z" fill="#4D5DE8"/>
<g clip-path="url(#clip1)">
<path d="M9.76005 6.64005C9.72255 6.64005 9.6888 6.6513 9.66005 6.67505L8.74005 7.44005L11.8401 7.44005L11.8401 6.64005L9.76005 6.64005ZM12.1601 6.64005L12.1601 7.44005L15.2601 7.44005L14.3451 6.67505C14.3163 6.6513 14.2776 6.64005 14.2401 6.64005L12.1601 6.64005ZM8.64005 7.76005L8.64005 13.2C8.64005 13.2888 8.71193 13.36 8.80005 13.36L15.2001 13.36C15.2888 13.36 15.3601 13.2888 15.3601 13.2L15.3601 7.76005L8.64005 7.76005ZM11.4401 8.56005L12.5601 8.56005C12.6882 8.56005 12.8001 8.67192 12.8001 8.80005C12.8001 8.92817 12.6882 9.04005 12.5601 9.04005L11.4401 9.04005C11.3119 9.04005 11.2001 8.92817 11.2001 8.80005C11.2001 8.67192 11.3119 8.56005 11.4401 8.56005ZM12.9601 10.96L13.4401 11.44L13.1201 11.44L13.1201 12.08L12.8001 12.08L12.8001 11.44L12.4801 11.44L12.9601 10.96ZM14.0801 10.96L14.5601 11.44L14.2401 11.44L14.2401 12.08L13.9201 12.08L13.9201 11.44L13.6001 11.44L14.0801 10.96ZM12.4801 12.24L14.5601 12.24L14.5601 12.56L12.4801 12.56L12.4801 12.24Z" fill="white"/>
</g>
</g>
<defs>
<clipPath id="clip0">
<rect width="24" height="24" fill="white"/>
</clipPath>
<clipPath id="clip1">
<rect width="8" height="8" fill="white" transform="translate(8 6)"/>
</clipPath>
</defs>
</svg>
