<svg width="16" height="16" viewBox="0 0 16 16" fill="none" xmlns="http://www.w3.org/2000/svg">
<path d="M1.06681 1.0667C0.996135 1.0657 0.925968 1.07876 0.860385 1.10511C0.794802 1.13147 0.735111 1.17059 0.68478 1.22022C0.63445 1.26984 0.594484 1.32897 0.567205 1.39418C0.539926 1.45938 0.525879 1.52936 0.525879 1.60004C0.525879 1.67072 0.539926 1.74069 0.567205 1.8059C0.594484 1.8711 0.63445 1.93023 0.68478 1.97986C0.735111 2.02948 0.794802 2.06861 0.860385 2.09496C0.925968 2.12131 0.996135 2.13437 1.06681 2.13337H2.06889C2.18937 2.13337 2.28991 2.20882 2.3241 2.32504L4.59702 10.0521C4.7965 10.7304 5.42383 11.2 6.13139 11.2H11.9856C12.7047 11.2 13.3397 10.714 13.5293 10.0209L14.9147 4.94066C14.9363 4.86152 14.9394 4.77846 14.9237 4.69794C14.908 4.61742 14.8739 4.54161 14.8241 4.4764C14.7744 4.41119 14.7102 4.35835 14.6367 4.32198C14.5631 4.28561 14.4822 4.2667 14.4001 4.2667H5.17685C4.48355 4.2667 3.87314 3.80992 3.67758 3.14478L3.34821 2.02449C3.34812 2.0242 3.34785 2.024 3.34754 2.024C3.34723 2.024 3.34696 2.02379 3.34687 2.02349C3.18037 1.45838 2.65757 1.0667 2.06889 1.0667H1.06681ZM6.40014 12.2667C6.11724 12.2667 5.84593 12.3791 5.64589 12.5791C5.44586 12.7792 5.33348 13.0505 5.33348 13.3334C5.33348 13.6163 5.44586 13.8876 5.64589 14.0876C5.84593 14.2877 6.11724 14.4 6.40014 14.4C6.68304 14.4 6.95435 14.2877 7.15439 14.0876C7.35443 13.8876 7.46681 13.6163 7.46681 13.3334C7.46681 13.0505 7.35443 12.7792 7.15439 12.5791C6.95435 12.3791 6.68304 12.2667 6.40014 12.2667ZM11.7335 12.2667C11.4506 12.2667 11.1793 12.3791 10.9792 12.5791C10.7792 12.7792 10.6668 13.0505 10.6668 13.3334C10.6668 13.6163 10.7792 13.8876 10.9792 14.0876C11.1793 14.2877 11.4506 14.4 11.7335 14.4C12.0164 14.4 12.2877 14.2877 12.4877 14.0876C12.6878 13.8876 12.8001 13.6163 12.8001 13.3334C12.8001 13.0505 12.6878 12.7792 12.4877 12.5791C12.2877 12.3791 12.0164 12.2667 11.7335 12.2667Z" fill="#288FDB"/>
<path d="M1.06681 1.0667C0.996135 1.0657 0.925968 1.07876 0.860385 1.10511C0.794802 1.13147 0.735111 1.17059 0.68478 1.22022C0.63445 1.26984 0.594484 1.32897 0.567205 1.39418C0.539926 1.45938 0.525879 1.52936 0.525879 1.60004C0.525879 1.67072 0.539926 1.74069 0.567205 1.8059C0.594484 1.8711 0.63445 1.93023 0.68478 1.97986C0.735111 2.02948 0.794802 2.06861 0.860385 2.09496C0.925968 2.12131 0.996135 2.13437 1.06681 2.13337H2.06889C2.18937 2.13337 2.28991 2.20882 2.3241 2.32504L4.59702 10.0521C4.7965 10.7304 5.42383 11.2 6.13139 11.2H11.9856C12.7047 11.2 13.3397 10.714 13.5293 10.0209L14.9147 4.94066C14.9363 4.86152 14.9394 4.77846 14.9237 4.69794C14.908 4.61742 14.8739 4.54161 14.8241 4.4764C14.7744 4.41119 14.7102 4.35835 14.6367 4.32198C14.5631 4.28561 14.4822 4.2667 14.4001 4.2667H5.17685C4.48355 4.2667 3.87314 3.80992 3.67758 3.14478L3.34821 2.02449C3.34812 2.0242 3.34785 2.024 3.34754 2.024C3.34723 2.024 3.34696 2.02379 3.34687 2.02349C3.18037 1.45838 2.65757 1.0667 2.06889 1.0667H1.06681ZM6.40014 12.2667C6.11724 12.2667 5.84593 12.3791 5.64589 12.5791C5.44586 12.7792 5.33348 13.0505 5.33348 13.3334C5.33348 13.6163 5.44586 13.8876 5.64589 14.0876C5.84593 14.2877 6.11724 14.4 6.40014 14.4C6.68304 14.4 6.95435 14.2877 7.15439 14.0876C7.35443 13.8876 7.46681 13.6163 7.46681 13.3334C7.46681 13.0505 7.35443 12.7792 7.15439 12.5791C6.95435 12.3791 6.68304 12.2667 6.40014 12.2667ZM11.7335 12.2667C11.4506 12.2667 11.1793 12.3791 10.9792 12.5791C10.7792 12.7792 10.6668 13.0505 10.6668 13.3334C10.6668 13.6163 10.7792 13.8876 10.9792 14.0876C11.1793 14.2877 11.4506 14.4 11.7335 14.4C12.0164 14.4 12.2877 14.2877 12.4877 14.0876C12.6878 13.8876 12.8001 13.6163 12.8001 13.3334C12.8001 13.0505 12.6878 12.7792 12.4877 12.5791C12.2877 12.3791 12.0164 12.2667 11.7335 12.2667Z" fill="url(#paint0_linear)"/>
<defs>
<linearGradient id="paint0_linear" x1="7.72973" y1="1.06665" x2="7.72973" y2="14.4" gradientUnits="userSpaceOnUse">
<stop stop-color="white" stop-opacity="0.2"/>
<stop offset="1" stop-color="white" stop-opacity="0"/>
</linearGradient>
</defs>
</svg>
