<svg width="66" height="60" viewBox="0 0 66 60" fill="none" xmlns="http://www.w3.org/2000/svg">
<path d="M24.4595 59.9367C22.3336 59.165 20.3886 58.0302 18.6698 56.623C10.5734 51.0849 6.68343 42.9141 4.69324 33.6537C3.9243 31.5202 5.05509 29.2052 7.13575 28.4335C7.18098 28.4335 7.22621 28.3881 7.27144 28.3881C9.03548 27.7072 10.7995 26.9355 13.0611 26.0276C12.7445 39.101 16.4535 50.2225 25.0475 59.4828C39.5216 49.3146 47.7085 35.3787 51.1461 18.4922C52.4578 12.0463 51.9151 11.5016 45.2208 11.4108C30.7919 11.1838 16.5439 15.0877 4.19569 22.6231C3.83384 22.85 3.47199 23.0316 3.0649 23.2132C2.29596 21.806 1.61749 20.3534 1.02948 18.8554C1.02948 18.8554 -3.8103 9.27729 7.4976 4.55634C26.8567 -3.52375 45.3565 -0.800122 62.0469 12.2733C64.3538 13.9528 65.575 16.8127 65.2132 19.6271C64.4895 29.5683 58.7903 37.0583 52.7292 44.0489C45.8088 51.9474 37.2148 58.0302 26.4044 59.8913C25.726 60.0275 25.0927 60.0275 24.4595 59.9367Z" fill="#20DEE2"/>
</svg>
