<svg width="24" height="24" viewBox="0 0 24 24" fill="none" xmlns="http://www.w3.org/2000/svg">
<g clip-path="url(#clip0)">
<path d="M12 0.75C7.03868 0.75 3 4.67819 3 9.50617C3 15.0924 8.4767 20.5109 11.4168 23.4227L12 24L12.5812 23.4227C15.5234 20.5129 21 15.0964 21 9.50617C21 4.67819 16.9613 0.75 12 0.75Z" fill="#47B8E8"/>
<g clip-path="url(#clip1)">
<path d="M12.73 7.17758C12.1154 6.87039 11.6401 7.17899 11.6201 7.19227C11.5125 7.26399 11.4833 7.40961 11.5551 7.51727C11.627 7.62493 11.7725 7.65415 11.8801 7.58227C11.8828 7.58055 12.1523 7.4129 12.5203 7.59696C12.8172 7.74527 13.1277 7.74141 13.4078 7.60486C13.5512 7.53497 13.5813 7.34341 13.4685 7.23063C13.3973 7.15944 13.2898 7.1433 13.2001 7.18624C13.0911 7.23843 12.9252 7.27527 12.73 7.17758Z" fill="white"/>
<path d="M10.927 6.1434C10.3125 5.83622 9.83714 6.14481 9.81714 6.15809C9.70948 6.22981 9.68027 6.37543 9.75214 6.48309C9.82402 6.59075 9.96948 6.61997 10.0771 6.54809C10.0798 6.54637 10.3493 6.37872 10.7173 6.56278C11.0142 6.71109 11.3247 6.70723 11.6048 6.57068C11.7482 6.50079 11.7783 6.30923 11.6655 6.19645C11.5943 6.12526 11.4868 6.10912 11.3971 6.15206C11.2881 6.20423 11.1222 6.24107 10.927 6.1434Z" fill="white"/>
<path d="M14.9895 6.1434C14.375 5.83622 13.8997 6.14481 13.8797 6.15809C13.772 6.22981 13.7428 6.37543 13.8147 6.48309C13.8865 6.59075 14.032 6.61997 14.1397 6.54809C14.1423 6.54637 14.4118 6.37872 14.7798 6.56278C15.0767 6.71109 15.3873 6.70723 15.6673 6.57068C15.8107 6.50079 15.8408 6.30923 15.728 6.19645C15.6568 6.12526 15.5493 6.10912 15.4596 6.15206C15.3506 6.20423 15.1848 6.24107 14.9895 6.1434Z" fill="white"/>
<path d="M10.6049 8.38284L10.528 7.59445C10.5162 7.47439 10.4153 7.38284 10.2947 7.38284L9.25003 7.38284C9.1294 7.38284 9.02847 7.47441 9.01676 7.59445L8.93984 8.38284L10.6049 8.38284Z" fill="white"/>
<path d="M11.4783 12.5075L15.4845 12.5075L15.4845 8.61692C15.4845 8.40871 15.2318 8.30375 15.0844 8.4512L13.9845 9.55109L13.9845 8.61692C13.9845 8.40871 13.7318 8.30375 13.5844 8.4512L12.4845 9.55109L12.4845 8.61692C12.4845 8.40871 12.2318 8.30375 12.0844 8.4512L11.1716 9.36392L11.4783 12.5075ZM13.5001 11.5075L14.0001 11.5075C14.1295 11.5075 14.2345 11.6125 14.2345 11.7419C14.2345 11.8714 14.1295 11.9763 14.0001 11.9763L13.5001 11.9763C13.3706 11.9763 13.2657 11.8714 13.2657 11.7419C13.2657 11.6125 13.3706 11.5075 13.5001 11.5075ZM12.0001 11.5075L12.5001 11.5075C12.6295 11.5075 12.7345 11.6125 12.7345 11.7419C12.7345 11.8714 12.6295 11.9763 12.5001 11.9763L12.0001 11.9763C11.8706 11.9763 11.7657 11.8714 11.7657 11.7419C11.7657 11.6125 11.8706 11.5075 12.0001 11.5075Z" fill="white"/>
<path d="M8.23438 12.9766C8.10494 12.9766 8 13.0815 8 13.2109L8 13.7578C8 13.8873 8.10494 13.9922 8.23437 13.9922L15.7656 13.9922C15.8951 13.9922 16 13.8873 16 13.7578L16 13.2109C16 13.0815 15.8951 12.9766 15.7656 12.9766C14.9934 12.9766 7.73964 12.9766 8.23438 12.9766Z" fill="white"/>
<path d="M10.6504 8.85156L8.89394 8.85156L8.53724 12.5078L11.0071 12.5078L10.6504 8.85156Z" fill="white"/>
</g>
</g>
<defs>
<clipPath id="clip0">
<rect width="24" height="24" fill="white"/>
</clipPath>
<clipPath id="clip1">
<rect width="8" height="8" fill="white" transform="translate(8 6)"/>
</clipPath>
</defs>
</svg>
