<svg width="24" height="24" viewBox="0 0 24 24" fill="none" xmlns="http://www.w3.org/2000/svg">
<g clip-path="url(#clip0)">
<path d="M12 0.75C7.03868 0.75 3 4.67819 3 9.50617C3 15.0924 8.4767 20.5109 11.4168 23.4227L12 24L12.5812 23.4227C15.5234 20.5129 21 15.0964 21 9.50617C21 4.67819 16.9613 0.75 12 0.75Z" fill="#20DEE2"/>
<g clip-path="url(#clip1)">
<path d="M12.73 7.17757C12.1155 6.87038 11.6402 7.17897 11.6202 7.19226C11.5125 7.26397 11.4833 7.4096 11.5552 7.51726C11.627 7.62491 11.7725 7.65413 11.8802 7.58226C11.8828 7.58054 12.1523 7.41288 12.5203 7.59694C12.8172 7.74526 13.1278 7.7414 13.4078 7.60485C13.5512 7.53496 13.5813 7.3434 13.4685 7.23061C13.3973 7.15943 13.2898 7.14329 13.2001 7.18622C13.0911 7.23841 12.9253 7.27526 12.73 7.17757Z" fill="#000C0C" fill-opacity="0.8"/>
<path d="M10.927 6.14339C10.3125 5.8362 9.83718 6.14479 9.81718 6.15808C9.70952 6.22979 9.6803 6.37542 9.75218 6.48307C9.82405 6.59073 9.96952 6.61995 10.0772 6.54808C10.0798 6.54636 10.3494 6.3787 10.7173 6.56276C11.0143 6.71107 11.3248 6.70722 11.6049 6.57067C11.7482 6.50078 11.7783 6.30922 11.6655 6.19643C11.5943 6.12525 11.4868 6.10911 11.3971 6.15204C11.2881 6.20422 11.1223 6.24106 10.927 6.14339Z" fill="#000C0C" fill-opacity="0.8"/>
<path d="M14.9895 6.14339C14.375 5.8362 13.8997 6.14479 13.8797 6.15808C13.772 6.22979 13.7428 6.37542 13.8147 6.48307C13.8866 6.59073 14.032 6.61995 14.1397 6.54807C14.1423 6.54636 14.4119 6.3787 14.7798 6.56276C15.0768 6.71107 15.3873 6.70722 15.6673 6.57067C15.8107 6.50078 15.8408 6.30922 15.728 6.19643C15.6568 6.12525 15.5493 6.10911 15.4596 6.15204C15.3506 6.20422 15.1848 6.24106 14.9895 6.14339Z" fill="#000C0C" fill-opacity="0.8"/>
<path d="M10.6049 8.38281L10.5279 7.59442C10.5162 7.47436 10.4153 7.38281 10.2947 7.38281L9.25001 7.38281C9.12938 7.38281 9.02844 7.47437 9.01674 7.59442L8.93982 8.38281L10.6049 8.38281Z" fill="#000C0C" fill-opacity="0.8"/>
<path d="M11.4783 12.5075L15.4845 12.5075L15.4845 8.61691C15.4845 8.40871 15.2318 8.30374 15.0844 8.45119L13.9845 9.55108L13.9845 8.61691C13.9845 8.40871 13.7318 8.30374 13.5844 8.45119L12.4845 9.55108L12.4845 8.61691C12.4845 8.40871 12.2318 8.30374 12.0844 8.45119L11.1716 9.36391L11.4783 12.5075ZM13.5001 11.5075L14.0001 11.5075C14.1295 11.5075 14.2345 11.6125 14.2345 11.7419C14.2345 11.8713 14.1295 11.9763 14.0001 11.9763L13.5001 11.9763C13.3706 11.9763 13.2657 11.8713 13.2657 11.7419C13.2657 11.6125 13.3706 11.5075 13.5001 11.5075ZM12.0001 11.5075L12.5001 11.5075C12.6295 11.5075 12.7345 11.6125 12.7345 11.7419C12.7345 11.8713 12.6295 11.9763 12.5001 11.9763L12.0001 11.9763C11.8706 11.9763 11.7657 11.8713 11.7657 11.7419C11.7657 11.6125 11.8706 11.5075 12.0001 11.5075Z" fill="#000C0C" fill-opacity="0.8"/>
<path d="M8.23438 12.9766C8.10494 12.9766 8 13.0815 8 13.2109L8 13.7578C8 13.8872 8.10494 13.9922 8.23437 13.9922L15.7656 13.9922C15.8951 13.9922 16 13.8872 16 13.7578L16 13.2109C16 13.0815 15.8951 12.9766 15.7656 12.9766C14.9934 12.9766 7.73964 12.9766 8.23438 12.9766Z" fill="#000C0C" fill-opacity="0.8"/>
<path d="M10.6504 8.85155L8.89393 8.85155L8.53723 12.5078L11.0071 12.5078L10.6504 8.85155Z" fill="#000C0C" fill-opacity="0.8"/>
</g>
</g>
<defs>
<clipPath id="clip0">
<rect width="24" height="24" fill="white"/>
</clipPath>
<clipPath id="clip1">
<rect width="8" height="8" fill="white" transform="translate(8 6)"/>
</clipPath>
</defs>
</svg>
