<svg width="45" height="41" viewBox="0 0 45 41" fill="none" xmlns="http://www.w3.org/2000/svg">
<g filter="url(#filter0_d)">
<path d="M11 8C9.35 8 8 9.35 8 11V24C8 25.65 9.35 27 11 27H16.9609L17.25 26.7109L17.9297 26.0293C18.0597 25.8993 18.43 25.5405 19 25.0605V25H11C10.45 25 10 24.55 10 24V11C10 10.45 10.45 10 11 10H31C31.55 10 32 10.45 32 11V12H10V14H32V22.1504C32.72 22.4604 33.39 22.7999 34 23.1699V11C34 9.35 32.65 8 31 8H11ZM27.8281 23.2441C23.6331 23.2441 19.5368 27.2445 19.3418 27.4395L18.6582 28.1211L19.3418 28.8047C19.5378 28.9997 23.6331 33 27.8281 33C32.0231 33 36.1214 28.9997 36.3164 28.8047L37 28.1211L36.3164 27.4395C36.1214 27.2445 32.0231 23.2441 27.8281 23.2441ZM27.0254 25.3125C25.7805 25.6497 24.9023 26.7446 24.9023 28.1211C24.9023 29.4975 25.7805 30.5944 27.0254 30.9316C24.9671 30.6102 22.8318 29.166 21.5703 28.1211C22.8318 27.0753 24.9676 25.6338 27.0254 25.3125ZM28.6758 25.3164C30.7207 25.6512 32.8352 27.0835 34.0879 28.1211C32.8264 29.1669 30.6911 30.6103 28.6328 30.9316C29.8777 30.5942 30.7559 29.4967 30.7559 28.1211C30.7559 27.8281 30.6582 27.5371 30.6582 27.2441C30.3652 27.7321 29.878 28.1211 29.293 28.1211C28.513 28.1211 27.8281 27.4382 27.8281 26.6582C27.8281 26.0856 28.2035 25.6113 28.6758 25.3164Z" fill="#20DEE2"/>
</g>
<defs>
<filter id="filter0_d" x="-3" y="-7" width="48" height="48" filterUnits="userSpaceOnUse" color-interpolation-filters="sRGB">
<feFlood flood-opacity="0" result="BackgroundImageFix"/>
<feColorMatrix in="SourceAlpha" type="matrix" values="0 0 0 0 0 0 0 0 0 0 0 0 0 0 0 0 0 0 127 0"/>
<feOffset/>
<feGaussianBlur stdDeviation="4"/>
<feColorMatrix type="matrix" values="0 0 0 0 0.12549 0 0 0 0 0.870588 0 0 0 0 0.886275 0 0 0 0.32 0"/>
<feBlend mode="normal" in2="BackgroundImageFix" result="effect1_dropShadow"/>
<feBlend mode="normal" in="SourceGraphic" in2="effect1_dropShadow" result="shape"/>
</filter>
</defs>
</svg>
