<svg width="732" height="108" viewBox="0 0 732 108" fill="none" xmlns="http://www.w3.org/2000/svg">
<path d="M48.1004 84.8992C62.7004 84.8992 71.3004 80.3992 79.1004 71.9992L68.5004 60.6992C62.6004 66.0992 57.3004 69.5992 48.6004 69.5992C35.6004 69.5992 26.7004 58.7992 26.7004 45.7992C26.7004 32.5992 35.9004 21.9992 48.6004 21.9992C57.2004 21.9992 62.2004 25.0992 68.0004 30.3992L78.0004 18.9992C71.0004 12.0992 63.0004 6.69922 48.8004 6.69922C25.6004 6.69922 9.40039 24.2992 9.40039 45.7992C9.40039 67.6992 25.9004 84.8992 48.1004 84.8992ZM118.1 84.8992C136.1 84.8992 149.5 71.3992 149.5 54.7992C149.5 37.9992 136.2 24.6992 118.3 24.6992C100.3 24.6992 86.9004 38.1992 86.9004 54.7992C86.8004 71.5992 100.1 84.8992 118.1 84.8992ZM118.3 70.7992C109.2 70.7992 103.1 63.2992 103.1 54.7992C103.1 46.0992 108.7 38.7992 118.1 38.7992C127.2 38.7992 133.3 46.2992 133.3 54.7992C133.3 63.4992 127.7 70.7992 118.3 70.7992ZM189.8 84.8992C207.8 84.8992 221.2 71.3992 221.2 54.7992C221.2 37.9992 207.9 24.6992 190 24.6992C172 24.6992 158.6 38.1992 158.6 54.7992C158.6 71.5992 171.8 84.8992 189.8 84.8992ZM190 70.7992C180.9 70.7992 174.8 63.2992 174.8 54.7992C174.8 46.0992 180.4 38.7992 189.8 38.7992C198.9 38.7992 205 46.2992 205 54.7992C205 63.4992 199.4 70.7992 190 70.7992ZM233.1 83.5992H249.5V62.1992C249.5 48.3992 256.2 41.7992 267.1 41.7992H268V24.6992C258.3 24.2992 252.9 29.4992 249.5 37.3992V25.6992H233.1V83.5992ZM300.9 84.6992C309.4 84.6992 314.9 80.6992 318.9 75.2992V83.5992H335.3V4.79922H319V33.2992C315.1 28.6992 309.7 24.6992 301 24.6992C287.3 24.6992 274.6 35.2992 274.6 54.5992C274.6 74.0992 287.4 84.6992 300.9 84.6992ZM305.1 70.7992C297.4 70.7992 291 64.3992 291 54.7992C291 44.8992 297.5 38.5992 305.1 38.5992C312.7 38.5992 319.1 44.9992 319.1 54.5992C319.2 64.3992 312.8 70.7992 305.1 70.7992ZM378.5 84.8992C396.5 84.8992 409.9 71.3992 409.9 54.7992C409.9 37.9992 396.6 24.6992 378.7 24.6992C360.7 24.6992 347.3 38.1992 347.3 54.7992C347.2 71.5992 360.5 84.8992 378.5 84.8992ZM378.7 70.7992C369.6 70.7992 363.5 63.2992 363.5 54.7992C363.5 46.0992 369.1 38.7992 378.5 38.7992C387.6 38.7992 393.7 46.2992 393.7 54.7992C393.7 63.4992 388.1 70.7992 378.7 70.7992ZM421.8 83.5992H438.2V51.2992C438.2 43.4992 442.2 39.4992 448.5 39.4992C454.8 39.4992 458.4 43.4992 458.4 51.2992V83.5992H474.8V46.0992C474.8 32.7992 467.6 24.5992 455.1 24.5992C446.8 24.5992 441.9 28.9992 438.1 33.8992V25.6992H421.7V83.5992H421.8ZM489.1 83.5992H505.5V51.2992C505.5 43.4992 509.5 39.4992 515.8 39.4992C522.1 39.4992 525.7 43.4992 525.7 51.2992V83.5992H542.1V46.0992C542.1 32.7992 534.9 24.5992 522.4 24.5992C514.1 24.5992 509.2 28.9992 505.4 33.8992V25.6992H489V83.5992H489.1ZM583.8 84.8992C594.3 84.8992 602.1 80.7992 607.5 74.0992L598.1 65.7992C593.6 69.9992 589.6 71.6992 584.1 71.6992C576.8 71.6992 571.6 67.7992 570 60.3992H610.3C610.4 58.8992 610.5 57.3992 610.5 56.0992C610.5 39.6992 601.6 24.6992 582.3 24.6992C565.5 24.6992 553.7 38.2992 553.7 54.7992C553.5 72.6992 566.4 84.8992 583.8 84.8992ZM569.6 50.0992C570.9 42.5992 575.3 37.7992 582.1 37.7992C589 37.7992 593.3 42.7992 594.3 50.0992H569.6ZM575.6 19.3992H588.1L601.9 6.39922L587.8 0.199219L575.6 19.3992ZM650 84.8992C660.5 84.8992 668.3 80.7992 673.7 74.0992L664.3 65.7992C659.8 69.9992 655.8 71.6992 650.3 71.6992C643 71.6992 637.8 67.7992 636.2 60.3992H676.5C676.6 58.8992 676.7 57.3992 676.7 56.0992C676.7 39.6992 667.8 24.6992 648.5 24.6992C631.7 24.6992 619.9 38.2992 619.9 54.7992C619.8 72.6992 632.6 84.8992 650 84.8992ZM635.9 50.0992C637.2 42.5992 641.6 37.7992 648.4 37.7992C655.3 37.7992 659.6 42.7992 660.6 50.0992H635.9ZM709.1 84.6992C721.6 84.6992 731.2 78.8992 731.2 65.9992C731.2 55.1992 721.8 51.2992 713.7 48.5992C707.4 46.3992 701.9 44.8992 701.9 41.6992C701.9 39.1992 704 37.4992 707.9 37.4992C712.1 37.4992 717.8 39.5992 723.6 42.8992L729.9 31.5992C723.6 27.3992 715.6 24.8992 708.3 24.8992C696.6 24.8992 687.1 31.4992 687.1 43.2992C687.1 54.6992 696.3 58.4992 704.4 60.8992C710.8 62.7992 716.4 63.9992 716.4 67.5992C716.4 70.3992 714.2 72.0992 709.5 72.0992C704.1 72.0992 697.5 69.6992 691.2 65.1992L684.2 75.9992C692 81.9992 701 84.6992 709.1 84.6992Z" fill="#20DEE2" fill-opacity="0.15"/>
<path d="M48.1004 84.8992C62.7004 84.8992 71.3004 80.3992 79.1004 71.9992L68.5004 60.6992C62.6004 66.0992 57.3004 69.5992 48.6004 69.5992C35.6004 69.5992 26.7004 58.7992 26.7004 45.7992C26.7004 32.5992 35.9004 21.9992 48.6004 21.9992C57.2004 21.9992 62.2004 25.0992 68.0004 30.3992L78.0004 18.9992C71.0004 12.0992 63.0004 6.69922 48.8004 6.69922C25.6004 6.69922 9.40039 24.2992 9.40039 45.7992C9.40039 67.6992 25.9004 84.8992 48.1004 84.8992ZM118.1 84.8992C136.1 84.8992 149.5 71.3992 149.5 54.7992C149.5 37.9992 136.2 24.6992 118.3 24.6992C100.3 24.6992 86.9004 38.1992 86.9004 54.7992C86.8004 71.5992 100.1 84.8992 118.1 84.8992ZM118.3 70.7992C109.2 70.7992 103.1 63.2992 103.1 54.7992C103.1 46.0992 108.7 38.7992 118.1 38.7992C127.2 38.7992 133.3 46.2992 133.3 54.7992C133.3 63.4992 127.7 70.7992 118.3 70.7992ZM189.8 84.8992C207.8 84.8992 221.2 71.3992 221.2 54.7992C221.2 37.9992 207.9 24.6992 190 24.6992C172 24.6992 158.6 38.1992 158.6 54.7992C158.6 71.5992 171.8 84.8992 189.8 84.8992ZM190 70.7992C180.9 70.7992 174.8 63.2992 174.8 54.7992C174.8 46.0992 180.4 38.7992 189.8 38.7992C198.9 38.7992 205 46.2992 205 54.7992C205 63.4992 199.4 70.7992 190 70.7992ZM233.1 83.5992H249.5V62.1992C249.5 48.3992 256.2 41.7992 267.1 41.7992H268V24.6992C258.3 24.2992 252.9 29.4992 249.5 37.3992V25.6992H233.1V83.5992ZM300.9 84.6992C309.4 84.6992 314.9 80.6992 318.9 75.2992V83.5992H335.3V4.79922H319V33.2992C315.1 28.6992 309.7 24.6992 301 24.6992C287.3 24.6992 274.6 35.2992 274.6 54.5992C274.6 74.0992 287.4 84.6992 300.9 84.6992ZM305.1 70.7992C297.4 70.7992 291 64.3992 291 54.7992C291 44.8992 297.5 38.5992 305.1 38.5992C312.7 38.5992 319.1 44.9992 319.1 54.5992C319.2 64.3992 312.8 70.7992 305.1 70.7992ZM378.5 84.8992C396.5 84.8992 409.9 71.3992 409.9 54.7992C409.9 37.9992 396.6 24.6992 378.7 24.6992C360.7 24.6992 347.3 38.1992 347.3 54.7992C347.2 71.5992 360.5 84.8992 378.5 84.8992ZM378.7 70.7992C369.6 70.7992 363.5 63.2992 363.5 54.7992C363.5 46.0992 369.1 38.7992 378.5 38.7992C387.6 38.7992 393.7 46.2992 393.7 54.7992C393.7 63.4992 388.1 70.7992 378.7 70.7992ZM421.8 83.5992H438.2V51.2992C438.2 43.4992 442.2 39.4992 448.5 39.4992C454.8 39.4992 458.4 43.4992 458.4 51.2992V83.5992H474.8V46.0992C474.8 32.7992 467.6 24.5992 455.1 24.5992C446.8 24.5992 441.9 28.9992 438.1 33.8992V25.6992H421.7V83.5992H421.8ZM489.1 83.5992H505.5V51.2992C505.5 43.4992 509.5 39.4992 515.8 39.4992C522.1 39.4992 525.7 43.4992 525.7 51.2992V83.5992H542.1V46.0992C542.1 32.7992 534.9 24.5992 522.4 24.5992C514.1 24.5992 509.2 28.9992 505.4 33.8992V25.6992H489V83.5992H489.1ZM583.8 84.8992C594.3 84.8992 602.1 80.7992 607.5 74.0992L598.1 65.7992C593.6 69.9992 589.6 71.6992 584.1 71.6992C576.8 71.6992 571.6 67.7992 570 60.3992H610.3C610.4 58.8992 610.5 57.3992 610.5 56.0992C610.5 39.6992 601.6 24.6992 582.3 24.6992C565.5 24.6992 553.7 38.2992 553.7 54.7992C553.5 72.6992 566.4 84.8992 583.8 84.8992ZM569.6 50.0992C570.9 42.5992 575.3 37.7992 582.1 37.7992C589 37.7992 593.3 42.7992 594.3 50.0992H569.6ZM575.6 19.3992H588.1L601.9 6.39922L587.8 0.199219L575.6 19.3992ZM650 84.8992C660.5 84.8992 668.3 80.7992 673.7 74.0992L664.3 65.7992C659.8 69.9992 655.8 71.6992 650.3 71.6992C643 71.6992 637.8 67.7992 636.2 60.3992H676.5C676.6 58.8992 676.7 57.3992 676.7 56.0992C676.7 39.6992 667.8 24.6992 648.5 24.6992C631.7 24.6992 619.9 38.2992 619.9 54.7992C619.8 72.6992 632.6 84.8992 650 84.8992ZM635.9 50.0992C637.2 42.5992 641.6 37.7992 648.4 37.7992C655.3 37.7992 659.6 42.7992 660.6 50.0992H635.9ZM709.1 84.6992C721.6 84.6992 731.2 78.8992 731.2 65.9992C731.2 55.1992 721.8 51.2992 713.7 48.5992C707.4 46.3992 701.9 44.8992 701.9 41.6992C701.9 39.1992 704 37.4992 707.9 37.4992C712.1 37.4992 717.8 39.5992 723.6 42.8992L729.9 31.5992C723.6 27.3992 715.6 24.8992 708.3 24.8992C696.6 24.8992 687.1 31.4992 687.1 43.2992C687.1 54.6992 696.3 58.4992 704.4 60.8992C710.8 62.7992 716.4 63.9992 716.4 67.5992C716.4 70.3992 714.2 72.0992 709.5 72.0992C704.1 72.0992 697.5 69.6992 691.2 65.1992L684.2 75.9992C692 81.9992 701 84.6992 709.1 84.6992Z" fill="url(#paint0_linear)"/>
<path fill-rule="evenodd" clip-rule="evenodd" d="M76.4008 71.9992C73.0008 75.3992 69.5008 77.8992 65.4008 79.6992C60.8008 81.6992 55.2008 82.7992 48.2008 82.7992C27.0008 82.8992 11.4008 66.6992 11.4008 45.7992C11.4008 25.3992 26.7008 8.69922 48.8008 8.69922C55.7008 8.69922 60.9008 9.99922 65.3008 12.0992C69.1008 13.8992 72.3008 16.2992 75.3008 19.1992L67.9008 27.6992C65.5008 25.5992 63.0008 23.7992 60.3008 22.4992C57.0008 20.8992 53.3008 20.0992 48.7008 20.0992C34.7008 20.0992 24.8008 31.7992 24.8008 45.8992C24.8008 59.6992 34.5008 71.6992 48.7008 71.6992C57.3008 71.6992 62.9008 68.4992 68.4008 63.5992L76.4008 71.9992ZM68.5008 60.6992L79.1008 71.9992C71.3008 80.2992 62.7008 84.8992 48.1008 84.8992C25.9008 84.8992 9.30078 67.6992 9.30078 45.7992C9.30078 24.2992 25.5008 6.69922 48.7008 6.69922C63.0008 6.69922 71.0008 12.0992 78.0008 18.9992L68.1008 30.3992C67.6008 29.8992 67.1008 29.4992 66.6008 29.0992C61.4008 24.5992 56.6008 21.9992 48.7008 21.9992C36.0008 21.9992 26.8008 32.5992 26.8008 45.7992C26.8008 58.7992 35.8008 69.5992 48.7008 69.5992C57.3008 69.5992 62.6008 66.0992 68.5008 60.6992ZM118.101 82.8992C135.101 82.8992 147.501 70.1992 147.501 54.7992C147.501 39.0992 135.201 26.6992 118.301 26.6992C101.301 26.6992 88.9008 39.3992 88.9008 54.7992C88.8008 70.4992 101.201 82.8992 118.101 82.8992ZM118.301 72.7992C108.001 72.7992 101.101 64.2992 101.101 54.7992C101.101 49.9992 102.601 45.4992 105.601 42.1992C108.601 38.8992 112.901 36.7992 118.101 36.7992C128.401 36.7992 135.301 45.2992 135.301 54.7992C135.301 59.5992 133.801 64.0992 130.801 67.3992C127.801 70.6992 123.501 72.7992 118.301 72.7992ZM189.801 82.8992C206.801 82.8992 219.201 70.1992 219.201 54.7992C219.201 39.0992 206.901 26.6992 190.001 26.6992C173.001 26.6992 160.601 39.3992 160.601 54.7992C160.601 70.4992 172.901 82.8992 189.801 82.8992ZM190.001 72.7992C179.701 72.7992 172.801 64.2992 172.801 54.7992C172.801 49.9992 174.301 45.4992 177.301 42.1992C180.301 38.8992 184.601 36.7992 189.801 36.7992C200.101 36.7992 207.001 45.2992 207.001 54.7992C207.001 59.5992 205.501 64.0992 202.501 67.3992C199.501 70.6992 195.201 72.7992 190.001 72.7992ZM249.501 25.6992H233.101V83.5992H249.501V62.1992C249.501 48.3992 256.201 41.7992 267.101 41.7992H268.001V24.6992C260.001 24.2992 254.901 27.7992 251.501 33.4992C250.801 34.6992 250.101 36.0992 249.501 37.4992V25.6992ZM266.001 26.6992C262.501 26.7992 259.801 27.8992 257.601 29.4992C255.001 31.4992 253.001 34.3992 251.401 38.1992L247.601 37.3992V27.6992H235.201V81.5992H247.601V62.1992C247.601 54.9992 249.301 49.2992 252.801 45.4992C256.101 41.8992 260.701 40.0992 266.001 39.7992V26.6992ZM321.001 69.1992V81.5992H333.401V6.79922H321.001V38.7992L317.501 34.5992C313.901 30.2992 309.001 26.6992 301.001 26.6992C294.701 26.6992 288.601 29.0992 284.101 33.7992C279.601 38.3992 276.601 45.3992 276.601 54.5992C276.601 73.0992 288.601 82.6992 301.001 82.6992C308.801 82.6992 313.701 79.0992 317.401 74.0992L321.001 69.1992ZM319.001 4.79922H335.401V83.5992H319.001V75.2992C318.401 76.0992 317.701 76.9992 317.001 77.6992C313.201 81.7992 308.201 84.6992 301.001 84.6992C287.501 84.6992 274.601 74.0992 274.601 54.5992C274.601 35.2992 287.201 24.6992 301.001 24.6992C308.301 24.6992 313.301 27.4992 317.001 31.1992C317.701 31.8992 318.401 32.5992 319.001 33.3992V4.79922ZM305.101 72.7992C296.201 72.7992 289.001 65.3992 289.001 54.7992C289.001 43.8992 296.201 36.5992 305.101 36.5992C314.001 36.5992 321.101 43.9992 321.101 54.5992C321.201 65.2992 314.101 72.7992 305.101 72.7992ZM378.501 82.8992C395.501 82.8992 407.901 70.1992 407.901 54.7992C407.901 39.0992 395.601 26.6992 378.701 26.6992C361.701 26.6992 349.301 39.3992 349.301 54.7992C349.201 70.4992 361.601 82.8992 378.501 82.8992ZM378.701 72.7992C368.401 72.7992 361.501 64.2992 361.501 54.7992C361.501 49.9992 363.001 45.4992 366.001 42.1992C369.001 38.8992 373.301 36.7992 378.501 36.7992C388.801 36.7992 395.701 45.2992 395.701 54.7992C395.701 59.5992 394.201 64.0992 391.201 67.3992C388.201 70.6992 383.901 72.7992 378.701 72.7992ZM438.201 25.6992H421.801V83.5992H438.201V51.2992C438.201 43.4992 442.201 39.4992 448.501 39.4992C454.801 39.4992 458.401 43.4992 458.401 51.2992V83.5992H474.801V46.1992C474.801 32.8992 467.601 24.6992 455.101 24.6992C448.201 24.6992 443.601 27.7992 440.101 31.5992C439.401 32.3992 438.701 33.1992 438.101 33.9992V25.6992H438.201ZM472.801 81.5992V46.1992C472.801 39.8992 471.101 35.0992 468.101 31.7992C465.201 28.5992 460.801 26.6992 455.101 26.6992C447.701 26.6992 443.301 30.5992 439.701 35.1992L436.101 39.7992V27.7992H423.701V81.6992H436.101V51.2992C436.101 47.0992 437.201 43.5992 439.401 41.1992C441.601 38.6992 444.801 37.5992 448.401 37.5992C452.001 37.5992 455.101 38.7992 457.201 41.2992C459.301 43.7992 460.301 47.1992 460.301 51.3992V81.6992H472.801V81.5992ZM505.501 25.6992H489.101V83.5992H505.501V51.2992C505.501 43.4992 509.501 39.4992 515.801 39.4992C522.101 39.4992 525.701 43.4992 525.701 51.2992V83.5992H542.101V46.1992C542.101 32.8992 534.901 24.6992 522.401 24.6992C515.501 24.6992 510.901 27.7992 507.401 31.5992C506.701 32.3992 506.001 33.1992 505.401 33.9992V25.6992H505.501ZM540.101 81.5992V46.1992C540.101 39.8992 538.401 35.0992 535.401 31.7992C532.501 28.5992 528.101 26.6992 522.401 26.6992C515.001 26.6992 510.601 30.5992 507.001 35.1992L503.401 39.7992V27.7992H491.001V81.6992H503.401V51.2992C503.401 47.0992 504.501 43.5992 506.701 41.1992C508.901 38.6992 512.101 37.5992 515.701 37.5992C519.301 37.5992 522.401 38.7992 524.501 41.2992C526.601 43.7992 527.601 47.1992 527.601 51.3992V81.6992H540.101V81.5992ZM610.101 60.3992C610.201 58.8992 610.301 57.3992 610.301 56.0992C610.301 39.6992 601.401 24.6992 582.101 24.6992C565.301 24.6992 553.501 38.2992 553.501 54.7992C553.501 72.6992 566.401 84.8992 583.701 84.8992C594.201 84.8992 602.001 80.7992 607.401 74.0992L598.001 65.7992C593.501 69.9992 589.501 71.6992 584.001 71.6992C577.301 71.6992 572.501 68.4992 570.401 62.3992C570.201 61.7992 570.001 61.0992 569.901 60.3992H610.101ZM598.001 68.4992C593.701 72.0992 589.501 73.7992 584.001 73.7992C580.001 73.7992 576.401 72.6992 573.501 70.4992C570.701 68.2992 568.701 64.9992 567.901 60.8992L567.401 58.4992H608.301C608.401 57.6992 608.401 56.8992 608.401 56.1992C608.401 48.2992 606.301 40.8992 602.001 35.5992C597.801 30.2992 591.301 26.7992 582.201 26.7992C566.601 26.7992 555.601 39.3992 555.601 54.8992C555.601 63.3992 558.601 70.3992 563.601 75.2992C568.601 80.1992 575.601 83.0992 583.801 83.0992C592.901 83.0992 599.701 79.8992 604.701 74.4992L598.001 68.4992ZM567.301 52.0992L567.701 49.7992C568.401 45.7992 570.001 42.2992 572.401 39.7992C574.901 37.2992 578.201 35.7992 582.201 35.7992C586.201 35.7992 589.501 37.1992 592.001 39.7992C594.401 42.2992 595.901 45.7992 596.401 49.7992L596.701 52.0992H567.301ZM569.601 50.0992H594.301C594.201 49.3992 594.101 48.6992 593.901 48.0992C592.501 41.8992 588.301 37.7992 582.101 37.7992C575.901 37.7992 571.701 41.7992 570.001 48.0992C569.901 48.7992 569.801 49.4992 569.601 50.0992ZM587.301 17.3992L598.301 7.09922L588.501 2.79922L579.201 17.3992H587.301ZM575.601 19.3992H588.101L601.901 6.39922L587.801 0.199219L575.601 19.3992ZM676.401 60.3992C676.501 58.8992 676.601 57.3992 676.601 56.0992C676.601 39.6992 667.701 24.6992 648.401 24.6992C631.601 24.6992 619.801 38.2992 619.801 54.7992C619.801 72.6992 632.701 84.8992 650.001 84.8992C660.501 84.8992 668.301 80.7992 673.701 74.0992L664.301 65.7992C659.801 69.9992 655.801 71.6992 650.301 71.6992C643.601 71.6992 638.801 68.4992 636.701 62.3992C636.501 61.7992 636.301 61.0992 636.201 60.3992H676.401ZM664.301 68.4992C660.001 72.0992 655.801 73.7992 650.301 73.7992C646.301 73.7992 642.701 72.6992 639.801 70.4992C637.001 68.2992 635.001 64.9992 634.201 60.8992L633.701 58.4992H674.601C674.601 57.6992 674.701 56.8992 674.701 56.1992C674.701 48.2992 672.601 40.8992 668.301 35.5992C664.101 30.2992 657.601 26.7992 648.501 26.7992C632.901 26.7992 621.901 39.3992 621.901 54.8992C621.901 63.3992 624.901 70.3992 629.901 75.2992C634.901 80.1992 641.901 83.0992 650.101 83.0992C659.201 83.0992 666.001 79.8992 670.901 74.4992L664.301 68.4992ZM633.501 52.0992L633.901 49.7992C634.601 45.7992 636.201 42.2992 638.601 39.7992C641.101 37.2992 644.401 35.7992 648.401 35.7992C652.401 35.7992 655.701 37.1992 658.201 39.7992C660.601 42.2992 662.101 45.7992 662.601 49.7992L662.901 52.0992H633.501ZM635.901 50.0992H660.601C660.501 49.3992 660.401 48.6992 660.201 48.0992C658.801 41.8992 654.601 37.7992 648.401 37.7992C642.201 37.7992 638.001 41.7992 636.301 48.0992C636.101 48.7992 636.001 49.4992 635.901 50.0992ZM713.101 50.4992C712.501 50.2992 711.901 50.0992 711.301 49.8992C708.901 49.0992 706.401 48.2992 704.601 47.3992C703.401 46.7992 702.301 46.1992 701.501 45.2992C700.601 44.3992 700.001 43.1992 700.001 41.7992C700.001 39.8992 700.801 38.2992 702.301 37.0992C703.801 35.9992 705.801 35.4992 708.001 35.4992C712.301 35.4992 717.601 37.2992 722.901 40.1992L727.301 32.2992C721.601 28.8992 714.701 26.8992 708.401 26.8992C702.901 26.8992 698.101 28.3992 694.701 31.1992C691.301 33.8992 689.201 37.9992 689.201 43.1992C689.201 48.2992 691.201 51.4992 694.101 53.7992C697.101 56.1992 701.101 57.6992 705.101 58.7992C705.801 58.9992 706.501 59.1992 707.201 59.3992C709.601 60.0992 711.901 60.7992 713.701 61.5992C716.001 62.5992 718.501 64.2992 718.501 67.3992C718.501 69.3992 717.701 71.1992 716.001 72.3992C714.401 73.4992 712.201 73.9992 709.601 73.9992C704.201 73.9992 697.901 71.7992 691.901 67.8992L687.001 75.3992C694.001 80.3992 702.001 82.5992 709.101 82.5992C715.101 82.5992 720.101 81.1992 723.601 78.4992C727.001 75.8992 729.201 71.7992 729.201 65.8992C729.201 61.1992 727.201 58.0992 724.201 55.6992C721.301 53.3992 717.201 51.8992 713.101 50.4992ZM684.301 75.9992L691.301 65.1992C691.801 65.5992 692.401 65.9992 692.901 66.2992C698.701 70.0992 704.601 72.0992 709.501 72.0992C714.301 72.0992 716.401 70.3992 716.401 67.5992C716.401 64.4992 712.001 63.1992 706.601 61.5992C705.901 61.3992 705.201 61.1992 704.401 60.8992C696.301 58.4992 687.101 54.6992 687.101 43.2992C687.101 31.4992 696.601 24.8992 708.301 24.8992C715.601 24.8992 723.601 27.3992 729.901 31.5992L723.601 42.8992C723.001 42.5992 722.401 42.1992 721.901 41.8992C716.801 39.0992 711.801 37.4992 708.001 37.4992C704.001 37.4992 702.001 39.1992 702.001 41.6992C702.001 44.5992 706.501 46.0992 712.001 47.9992C712.601 48.1992 713.201 48.3992 713.801 48.5992C721.901 51.2992 731.301 55.1992 731.301 65.9992C731.301 78.8992 721.701 84.6992 709.201 84.6992C701.001 84.6992 692.001 81.9992 684.301 75.9992ZM149.501 54.7992C149.501 71.3992 136.101 84.8992 118.101 84.8992C100.201 84.8992 86.9008 71.5992 86.9008 54.7992C86.9008 38.1992 100.301 24.6992 118.301 24.6992C136.201 24.6992 149.501 37.8992 149.501 54.7992ZM103.001 54.7992C103.001 63.2992 109.201 70.7992 118.201 70.7992C127.601 70.7992 133.201 63.5992 133.201 54.7992C133.201 46.2992 127.001 38.7992 118.001 38.7992C108.701 38.7992 103.001 45.9992 103.001 54.7992ZM221.201 54.7992C221.201 71.3992 207.801 84.8992 189.801 84.8992C171.901 84.8992 158.601 71.5992 158.601 54.7992C158.601 38.1992 172.001 24.6992 190.001 24.6992C207.901 24.6992 221.201 37.8992 221.201 54.7992ZM174.801 54.7992C174.801 63.2992 181.001 70.7992 190.001 70.7992C199.401 70.7992 205.001 63.5992 205.001 54.7992C205.001 46.2992 198.801 38.7992 189.801 38.7992C180.401 38.7992 174.801 45.9992 174.801 54.7992ZM291.001 54.7992C291.001 64.3992 297.501 70.7992 305.101 70.7992C312.701 70.7992 319.101 64.3992 319.101 54.5992C319.101 44.9992 312.701 38.5992 305.101 38.5992C297.501 38.5992 291.001 44.8992 291.001 54.7992ZM409.901 54.7992C409.901 71.3992 396.501 84.8992 378.501 84.8992C360.601 84.8992 347.301 71.5992 347.301 54.7992C347.301 38.1992 360.701 24.6992 378.701 24.6992C396.601 24.6992 409.901 37.8992 409.901 54.7992ZM363.401 54.7992C363.401 63.2992 369.601 70.7992 378.601 70.7992C388.001 70.7992 393.601 63.5992 393.601 54.7992C393.601 46.2992 387.401 38.7992 378.401 38.7992C369.101 38.7992 363.401 45.9992 363.401 54.7992Z" fill="url(#paint1_linear)" fill-opacity="0.5"/>
<path fill-rule="evenodd" clip-rule="evenodd" d="M76.4008 71.9992C73.0008 75.3992 69.5008 77.8992 65.4008 79.6992C60.8008 81.6992 55.2008 82.7992 48.2008 82.7992C27.0008 82.8992 11.4008 66.6992 11.4008 45.7992C11.4008 25.3992 26.7008 8.69922 48.8008 8.69922C55.7008 8.69922 60.9008 9.99922 65.3008 12.0992C69.1008 13.8992 72.3008 16.2992 75.3008 19.1992L67.9008 27.6992C65.5008 25.5992 63.0008 23.7992 60.3008 22.4992C57.0008 20.8992 53.3008 20.0992 48.7008 20.0992C34.7008 20.0992 24.8008 31.7992 24.8008 45.8992C24.8008 59.6992 34.5008 71.6992 48.7008 71.6992C57.3008 71.6992 62.9008 68.4992 68.4008 63.5992L76.4008 71.9992ZM68.5008 60.6992L79.1008 71.9992C71.3008 80.2992 62.7008 84.8992 48.1008 84.8992C25.9008 84.8992 9.30078 67.6992 9.30078 45.7992C9.30078 24.2992 25.5008 6.69922 48.7008 6.69922C63.0008 6.69922 71.0008 12.0992 78.0008 18.9992L68.1008 30.3992C67.6008 29.8992 67.1008 29.4992 66.6008 29.0992C61.4008 24.5992 56.6008 21.9992 48.7008 21.9992C36.0008 21.9992 26.8008 32.5992 26.8008 45.7992C26.8008 58.7992 35.8008 69.5992 48.7008 69.5992C57.3008 69.5992 62.6008 66.0992 68.5008 60.6992ZM118.101 82.8992C135.101 82.8992 147.501 70.1992 147.501 54.7992C147.501 39.0992 135.201 26.6992 118.301 26.6992C101.301 26.6992 88.9008 39.3992 88.9008 54.7992C88.8008 70.4992 101.201 82.8992 118.101 82.8992ZM118.301 72.7992C108.001 72.7992 101.101 64.2992 101.101 54.7992C101.101 49.9992 102.601 45.4992 105.601 42.1992C108.601 38.8992 112.901 36.7992 118.101 36.7992C128.401 36.7992 135.301 45.2992 135.301 54.7992C135.301 59.5992 133.801 64.0992 130.801 67.3992C127.801 70.6992 123.501 72.7992 118.301 72.7992ZM189.801 82.8992C206.801 82.8992 219.201 70.1992 219.201 54.7992C219.201 39.0992 206.901 26.6992 190.001 26.6992C173.001 26.6992 160.601 39.3992 160.601 54.7992C160.601 70.4992 172.901 82.8992 189.801 82.8992ZM190.001 72.7992C179.701 72.7992 172.801 64.2992 172.801 54.7992C172.801 49.9992 174.301 45.4992 177.301 42.1992C180.301 38.8992 184.601 36.7992 189.801 36.7992C200.101 36.7992 207.001 45.2992 207.001 54.7992C207.001 59.5992 205.501 64.0992 202.501 67.3992C199.501 70.6992 195.201 72.7992 190.001 72.7992ZM249.501 25.6992H233.101V83.5992H249.501V62.1992C249.501 48.3992 256.201 41.7992 267.101 41.7992H268.001V24.6992C260.001 24.2992 254.901 27.7992 251.501 33.4992C250.801 34.6992 250.101 36.0992 249.501 37.4992V25.6992ZM266.001 26.5992C262.501 26.6992 259.801 27.7992 257.601 29.3992C255.001 31.3992 253.001 34.2992 251.401 38.0992L247.601 37.2992V27.5992H235.201V81.4992H247.601V62.1992C247.601 54.9992 249.301 49.2992 252.801 45.4992C256.101 41.8992 260.701 40.0992 266.001 39.7992V26.5992ZM321.001 69.1992V81.5992H333.401V6.79922H321.001V38.7992L317.501 34.5992C313.901 30.2992 309.001 26.6992 301.001 26.6992C294.701 26.6992 288.601 29.0992 284.101 33.7992C279.601 38.3992 276.601 45.3992 276.601 54.5992C276.601 73.0992 288.601 82.6992 301.001 82.6992C308.801 82.6992 313.701 79.0992 317.401 74.0992L321.001 69.1992ZM319.001 4.79922H335.401V83.5992H319.001V75.2992C318.401 76.0992 317.701 76.9992 317.001 77.6992C313.201 81.7992 308.201 84.6992 301.001 84.6992C287.501 84.6992 274.601 74.0992 274.601 54.5992C274.601 35.2992 287.201 24.6992 301.001 24.6992C308.301 24.6992 313.301 27.4992 317.001 31.1992C317.701 31.8992 318.401 32.5992 319.001 33.3992V4.79922ZM305.101 72.7992C296.201 72.7992 289.001 65.3992 289.001 54.7992C289.001 43.8992 296.201 36.5992 305.101 36.5992C314.001 36.5992 321.101 43.9992 321.101 54.5992C321.201 65.2992 314.101 72.7992 305.101 72.7992ZM378.501 82.8992C395.501 82.8992 407.901 70.1992 407.901 54.7992C407.901 39.0992 395.601 26.6992 378.701 26.6992C361.701 26.6992 349.301 39.3992 349.301 54.7992C349.201 70.4992 361.601 82.8992 378.501 82.8992ZM378.701 72.7992C368.401 72.7992 361.501 64.2992 361.501 54.7992C361.501 49.9992 363.001 45.4992 366.001 42.1992C369.001 38.8992 373.301 36.7992 378.501 36.7992C388.801 36.7992 395.701 45.2992 395.701 54.7992C395.701 59.5992 394.201 64.0992 391.201 67.3992C388.201 70.6992 383.901 72.7992 378.701 72.7992ZM438.201 25.6992H421.801V83.5992H438.201V51.2992C438.201 43.4992 442.201 39.4992 448.501 39.4992C454.801 39.4992 458.401 43.4992 458.401 51.2992V83.5992H474.801V46.0992C474.801 32.7992 467.601 24.5992 455.101 24.5992C448.201 24.5992 443.601 27.6992 440.101 31.4992C439.401 32.2992 438.701 33.0992 438.101 33.8992V25.6992H438.201ZM472.801 81.5992V46.0992C472.801 39.7992 471.101 34.9992 468.101 31.6992C465.201 28.4992 460.801 26.5992 455.101 26.5992C447.701 26.5992 443.301 30.4992 439.701 35.0992L436.101 39.6992V27.6992H423.701V81.5992H436.101V51.2992C436.101 47.0992 437.201 43.5992 439.401 41.1992C441.601 38.6992 444.801 37.5992 448.401 37.5992C452.001 37.5992 455.101 38.7992 457.201 41.2992C459.301 43.7992 460.301 47.1992 460.301 51.3992V81.6992H472.801V81.5992ZM505.501 25.6992H489.101V83.5992H505.501V51.2992C505.501 43.4992 509.501 39.4992 515.801 39.4992C522.101 39.4992 525.701 43.4992 525.701 51.2992V83.5992H542.101V46.0992C542.101 32.7992 534.901 24.5992 522.401 24.5992C515.501 24.5992 510.901 27.6992 507.401 31.4992C506.701 32.2992 506.001 33.0992 505.401 33.8992V25.6992H505.501ZM540.101 81.5992V46.0992C540.101 39.7992 538.401 34.9992 535.401 31.6992C532.501 28.4992 528.101 26.5992 522.401 26.5992C515.001 26.5992 510.601 30.4992 507.001 35.0992L503.401 39.6992V27.6992H491.001V81.5992H503.401V51.2992C503.401 47.0992 504.501 43.5992 506.701 41.1992C508.901 38.6992 512.101 37.5992 515.701 37.5992C519.301 37.5992 522.401 38.7992 524.501 41.2992C526.601 43.7992 527.601 47.1992 527.601 51.3992V81.6992H540.101V81.5992ZM610.101 60.3992C610.201 58.8992 610.301 57.3992 610.301 56.0992C610.301 39.6992 601.401 24.6992 582.101 24.6992C565.301 24.6992 553.501 38.2992 553.501 54.7992C553.501 72.6992 566.401 84.8992 583.701 84.8992C594.201 84.8992 602.001 80.7992 607.401 74.0992L598.001 65.7992C593.501 69.9992 589.501 71.6992 584.001 71.6992C577.301 71.6992 572.501 68.4992 570.401 62.3992C570.201 61.7992 570.001 61.0992 569.901 60.3992H610.101ZM598.001 68.4992C593.701 72.0992 589.501 73.7992 584.001 73.7992C580.001 73.7992 576.401 72.6992 573.501 70.4992C570.701 68.2992 568.701 64.9992 567.901 60.8992L567.401 58.4992H608.301C608.401 57.6992 608.401 56.8992 608.401 56.1992C608.401 48.2992 606.301 40.8992 602.001 35.5992C597.801 30.2992 591.301 26.7992 582.201 26.7992C566.601 26.7992 555.601 39.3992 555.601 54.8992C555.601 63.3992 558.601 70.3992 563.601 75.2992C568.601 80.1992 575.601 83.0992 583.801 83.0992C592.901 83.0992 599.701 79.8992 604.701 74.4992L598.001 68.4992ZM567.301 52.0992L567.701 49.7992C568.401 45.7992 570.001 42.2992 572.401 39.7992C574.901 37.2992 578.201 35.7992 582.201 35.7992C586.201 35.7992 589.501 37.1992 592.001 39.7992C594.401 42.2992 595.901 45.7992 596.401 49.7992L596.701 52.0992H567.301ZM569.601 50.0992H594.301C594.201 49.3992 594.101 48.6992 593.901 48.0992C592.501 41.8992 588.301 37.7992 582.101 37.7992C575.901 37.7992 571.701 41.7992 570.001 48.0992C569.901 48.7992 569.801 49.4992 569.601 50.0992ZM587.301 17.3992L598.301 7.09922L588.501 2.79922L579.201 17.3992H587.301ZM575.601 19.3992H588.101L601.901 6.39922L587.801 0.199219L575.601 19.3992ZM676.401 60.3992C676.501 58.8992 676.601 57.3992 676.601 56.0992C676.601 39.6992 667.701 24.6992 648.401 24.6992C631.601 24.6992 619.801 38.2992 619.801 54.7992C619.801 72.6992 632.701 84.8992 650.001 84.8992C660.501 84.8992 668.301 80.7992 673.701 74.0992L664.301 65.7992C659.801 69.9992 655.801 71.6992 650.301 71.6992C643.601 71.6992 638.801 68.4992 636.701 62.3992C636.501 61.7992 636.301 61.0992 636.201 60.3992H676.401ZM664.301 68.4992C660.001 72.0992 655.801 73.7992 650.301 73.7992C646.301 73.7992 642.701 72.6992 639.801 70.4992C637.001 68.2992 635.001 64.9992 634.201 60.8992L633.701 58.4992H674.601C674.601 57.6992 674.701 56.8992 674.701 56.1992C674.701 48.2992 672.601 40.8992 668.301 35.5992C664.101 30.2992 657.601 26.7992 648.501 26.7992C632.901 26.7992 621.901 39.3992 621.901 54.8992C621.901 63.3992 624.901 70.3992 629.901 75.2992C634.901 80.1992 641.901 83.0992 650.101 83.0992C659.201 83.0992 666.001 79.8992 670.901 74.4992L664.301 68.4992ZM633.501 52.0992L633.901 49.7992C634.601 45.7992 636.201 42.2992 638.601 39.7992C641.101 37.2992 644.401 35.7992 648.401 35.7992C652.401 35.7992 655.701 37.1992 658.201 39.7992C660.601 42.2992 662.101 45.7992 662.601 49.7992L662.901 52.0992H633.501ZM635.901 50.0992H660.601C660.501 49.3992 660.401 48.6992 660.201 48.0992C658.801 41.8992 654.601 37.7992 648.401 37.7992C642.201 37.7992 638.001 41.7992 636.301 48.0992C636.101 48.7992 636.001 49.4992 635.901 50.0992ZM713.101 50.4992C712.501 50.2992 711.901 50.0992 711.301 49.8992C708.901 49.0992 706.401 48.2992 704.601 47.3992C703.401 46.7992 702.301 46.1992 701.501 45.2992C700.601 44.3992 700.001 43.1992 700.001 41.7992C700.001 39.8992 700.801 38.2992 702.301 37.0992C703.801 35.9992 705.801 35.4992 708.001 35.4992C712.301 35.4992 717.601 37.2992 722.901 40.1992L727.301 32.2992C721.601 28.8992 714.701 26.8992 708.401 26.8992C702.901 26.8992 698.101 28.3992 694.701 31.1992C691.301 33.8992 689.201 37.9992 689.201 43.1992C689.201 48.2992 691.201 51.4992 694.101 53.7992C697.101 56.1992 701.101 57.6992 705.101 58.7992C705.801 58.9992 706.501 59.1992 707.201 59.3992C709.601 60.0992 711.901 60.7992 713.701 61.5992C716.001 62.5992 718.501 64.2992 718.501 67.3992C718.501 69.3992 717.701 71.1992 716.001 72.3992C714.401 73.4992 712.201 73.9992 709.601 73.9992C704.201 73.9992 697.901 71.7992 691.901 67.8992L687.001 75.3992C694.001 80.3992 702.001 82.5992 709.101 82.5992C715.101 82.5992 720.101 81.1992 723.601 78.4992C727.001 75.8992 729.201 71.7992 729.201 65.8992C729.201 61.1992 727.201 58.0992 724.201 55.6992C721.301 53.3992 717.201 51.8992 713.101 50.4992ZM684.301 75.9992L691.301 65.1992C691.801 65.5992 692.401 65.9992 692.901 66.2992C698.701 70.0992 704.601 72.0992 709.501 72.0992C714.301 72.0992 716.401 70.3992 716.401 67.5992C716.401 64.4992 712.001 63.1992 706.601 61.5992C705.901 61.3992 705.201 61.1992 704.401 60.8992C696.301 58.4992 687.101 54.6992 687.101 43.2992C687.101 31.4992 696.601 24.8992 708.301 24.8992C715.601 24.8992 723.601 27.3992 729.901 31.5992L723.601 42.8992C723.001 42.5992 722.401 42.1992 721.901 41.8992C716.801 39.0992 711.801 37.4992 708.001 37.4992C704.001 37.4992 702.001 39.1992 702.001 41.6992C702.001 44.5992 706.501 46.0992 712.001 47.9992C712.601 48.1992 713.201 48.3992 713.801 48.5992C721.901 51.2992 731.301 55.1992 731.301 65.9992C731.301 78.8992 721.701 84.6992 709.201 84.6992C701.001 84.6992 692.001 81.9992 684.301 75.9992ZM149.501 54.7992C149.501 71.3992 136.101 84.8992 118.101 84.8992C100.201 84.8992 86.9008 71.5992 86.9008 54.7992C86.9008 38.1992 100.301 24.6992 118.301 24.6992C136.201 24.6992 149.501 37.8992 149.501 54.7992ZM103.001 54.7992C103.001 63.2992 109.201 70.7992 118.201 70.7992C127.601 70.7992 133.201 63.5992 133.201 54.7992C133.201 46.2992 127.001 38.7992 118.001 38.7992C108.701 38.7992 103.001 45.9992 103.001 54.7992ZM221.201 54.7992C221.201 71.3992 207.801 84.8992 189.801 84.8992C171.901 84.8992 158.601 71.5992 158.601 54.7992C158.601 38.1992 172.001 24.6992 190.001 24.6992C207.901 24.6992 221.201 37.8992 221.201 54.7992ZM174.801 54.7992C174.801 63.2992 181.001 70.7992 190.001 70.7992C199.401 70.7992 205.001 63.5992 205.001 54.7992C205.001 46.2992 198.801 38.7992 189.801 38.7992C180.401 38.7992 174.801 45.9992 174.801 54.7992ZM291.001 54.7992C291.001 64.3992 297.501 70.7992 305.101 70.7992C312.701 70.7992 319.101 64.3992 319.101 54.5992C319.101 44.9992 312.701 38.5992 305.101 38.5992C297.501 38.5992 291.001 44.8992 291.001 54.7992ZM409.901 54.7992C409.901 71.3992 396.501 84.8992 378.501 84.8992C360.601 84.8992 347.301 71.5992 347.301 54.7992C347.301 38.1992 360.701 24.6992 378.701 24.6992C396.601 24.6992 409.901 37.8992 409.901 54.7992ZM363.401 54.7992C363.401 63.2992 369.601 70.7992 378.601 70.7992C388.001 70.7992 393.601 63.5992 393.601 54.7992C393.601 46.2992 387.401 38.7992 378.401 38.7992C369.101 38.7992 363.401 45.9992 363.401 54.7992Z" fill="url(#paint2_linear)"/>
<defs>
<linearGradient id="paint0_linear" x1="370" y1="138" x2="1353.5" y2="1.0573e-05" gradientUnits="userSpaceOnUse">
<stop stop-opacity="0"/>
<stop offset="0.8719"/>
</linearGradient>
<linearGradient id="paint1_linear" x1="1362" y1="-1.71796e-05" x2="370" y2="127" gradientUnits="userSpaceOnUse">
<stop stop-color="#20DEE2" stop-opacity="0.8"/>
<stop offset="1" stop-opacity="0"/>
</linearGradient>
<linearGradient id="paint2_linear" x1="370" y1="138" x2="1233.5" y2="-4.40099e-05" gradientUnits="userSpaceOnUse">
<stop stop-color="white" stop-opacity="0.38"/>
<stop offset="0.5104" stop-color="#20DEE2" stop-opacity="0.33"/>
<stop offset="0.8021" stop-opacity="0"/>
</linearGradient>
</defs>
</svg>
